<svg width="335" height="335" viewBox="0 0 335 335" fill="none" xmlns="http://www.w3.org/2000/svg">
<path fill-rule="evenodd" clip-rule="evenodd" d="M16 0C7.16344 0 0 7.16345 0 16V258.772C6.22998 259.027 11.235 264.032 11.4903 270.262L11.5005 270.262H14.0119C14.2881 270.262 14.5119 270.486 14.5119 270.762C14.5119 271.038 14.2881 271.262 14.0119 271.262H11.5005L11.4903 271.262C11.235 277.492 6.22998 282.497 0 282.752V319C0 327.837 7.16345 335 16 335H319C327.837 335 335 327.837 335 319V282.762C334.972 282.762 334.945 282.762 334.917 282.762C328.457 282.762 323.19 277.658 322.928 271.262L322.917 271.262H320.406C320.13 271.262 319.906 271.038 319.906 270.762C319.906 270.486 320.13 270.262 320.406 270.262H322.917L322.928 270.262C323.19 263.867 328.457 258.762 334.917 258.762C334.945 258.762 334.972 258.762 335 258.762V16C335 7.16344 327.837 0 319 0H16ZM19.0348 270.262C18.7586 270.262 18.5348 270.486 18.5348 270.762C18.5348 271.038 18.7586 271.262 19.0348 271.262H24.0576C24.3338 271.262 24.5576 271.038 24.5576 270.762C24.5576 270.486 24.3338 270.262 24.0576 270.262H19.0348ZM29.0805 270.262C28.8043 270.262 28.5805 270.486 28.5805 270.762C28.5805 271.038 28.8043 271.262 29.0805 271.262H34.1033C34.3795 271.262 34.6033 271.038 34.6033 270.762C34.6033 270.486 34.3795 270.262 34.1033 270.262H29.0805ZM39.1262 270.262C38.85 270.262 38.6262 270.486 38.6262 270.762C38.6262 271.038 38.85 271.262 39.1262 271.262H44.149C44.4252 271.262 44.649 271.038 44.649 270.762C44.649 270.486 44.4252 270.262 44.149 270.262H39.1262ZM49.1719 270.262C48.8957 270.262 48.6719 270.486 48.6719 270.762C48.6719 271.038 48.8957 271.262 49.1719 271.262H54.1947C54.4709 271.262 54.6947 271.038 54.6947 270.762C54.6947 270.486 54.4709 270.262 54.1947 270.262H49.1719ZM59.2176 270.262C58.9415 270.262 58.7176 270.486 58.7176 270.762C58.7176 271.038 58.9415 271.262 59.2176 271.262H64.2404C64.5166 271.262 64.7404 271.038 64.7404 270.762C64.7404 270.486 64.5166 270.262 64.2404 270.262H59.2176ZM69.2633 270.262C68.9872 270.262 68.7633 270.486 68.7633 270.762C68.7633 271.038 68.9872 271.262 69.2633 271.262H74.2862C74.5623 271.262 74.7862 271.038 74.7862 270.762C74.7862 270.486 74.5623 270.262 74.2862 270.262H69.2633ZM79.309 270.262C79.0329 270.262 78.809 270.486 78.809 270.762C78.809 271.038 79.0329 271.262 79.309 271.262H84.3319C84.608 271.262 84.8319 271.038 84.8319 270.762C84.8319 270.486 84.608 270.262 84.3319 270.262H79.309ZM89.3547 270.262C89.0786 270.262 88.8547 270.486 88.8547 270.762C88.8547 271.038 89.0786 271.262 89.3547 271.262H94.3776C94.6537 271.262 94.8776 271.038 94.8776 270.762C94.8776 270.486 94.6537 270.262 94.3776 270.262H89.3547ZM99.4004 270.262C99.1243 270.262 98.9004 270.486 98.9004 270.762C98.9004 271.038 99.1243 271.262 99.4004 271.262H104.423C104.699 271.262 104.923 271.038 104.923 270.762C104.923 270.486 104.699 270.262 104.423 270.262H99.4004ZM109.446 270.262C109.17 270.262 108.946 270.486 108.946 270.762C108.946 271.038 109.17 271.262 109.446 271.262H114.469C114.745 271.262 114.969 271.038 114.969 270.762C114.969 270.486 114.745 270.262 114.469 270.262H109.446ZM119.492 270.262C119.216 270.262 118.992 270.486 118.992 270.762C118.992 271.038 119.216 271.262 119.492 271.262H124.515C124.791 271.262 125.015 271.038 125.015 270.762C125.015 270.486 124.791 270.262 124.515 270.262H119.492ZM129.538 270.262C129.261 270.262 129.038 270.486 129.038 270.762C129.038 271.038 129.261 271.262 129.538 271.262H134.56C134.837 271.262 135.06 271.038 135.06 270.762C135.06 270.486 134.837 270.262 134.56 270.262H129.538ZM139.583 270.262C139.307 270.262 139.083 270.486 139.083 270.762C139.083 271.038 139.307 271.262 139.583 271.262H144.606C144.882 271.262 145.106 271.038 145.106 270.762C145.106 270.486 144.882 270.262 144.606 270.262H139.583ZM149.629 270.262C149.353 270.262 149.129 270.486 149.129 270.762C149.129 271.038 149.353 271.262 149.629 271.262H154.652C154.928 271.262 155.152 271.038 155.152 270.762C155.152 270.486 154.928 270.262 154.652 270.262H149.629ZM159.675 270.262C159.399 270.262 159.175 270.486 159.175 270.762C159.175 271.038 159.399 271.262 159.675 271.262H164.698C164.974 271.262 165.198 271.038 165.198 270.762C165.198 270.486 164.974 270.262 164.698 270.262H159.675ZM169.72 270.262C169.444 270.262 169.22 270.486 169.22 270.762C169.22 271.038 169.444 271.262 169.72 271.262H174.743C175.019 271.262 175.243 271.038 175.243 270.762C175.243 270.486 175.019 270.262 174.743 270.262H169.72ZM179.766 270.262C179.49 270.262 179.266 270.486 179.266 270.762C179.266 271.038 179.49 271.262 179.766 271.262H184.789C185.065 271.262 185.289 271.038 185.289 270.762C185.289 270.486 185.065 270.262 184.789 270.262H179.766ZM189.812 270.262C189.536 270.262 189.312 270.486 189.312 270.762C189.312 271.038 189.536 271.262 189.812 271.262H194.835C195.111 271.262 195.335 271.038 195.335 270.762C195.335 270.486 195.111 270.262 194.835 270.262H189.812ZM199.858 270.262C199.581 270.262 199.358 270.486 199.358 270.762C199.358 271.038 199.581 271.262 199.858 271.262H204.88C205.157 271.262 205.38 271.038 205.38 270.762C205.38 270.486 205.157 270.262 204.88 270.262H199.858ZM209.903 270.262C209.627 270.262 209.403 270.486 209.403 270.762C209.403 271.038 209.627 271.262 209.903 271.262H214.926C215.202 271.262 215.426 271.038 215.426 270.762C215.426 270.486 215.202 270.262 214.926 270.262H209.903ZM219.949 270.262C219.673 270.262 219.449 270.486 219.449 270.762C219.449 271.038 219.673 271.262 219.949 271.262H224.972C225.248 271.262 225.472 271.038 225.472 270.762C225.472 270.486 225.248 270.262 224.972 270.262H219.949ZM229.995 270.262C229.719 270.262 229.495 270.486 229.495 270.762C229.495 271.038 229.719 271.262 229.995 271.262H235.018C235.294 271.262 235.518 271.038 235.518 270.762C235.518 270.486 235.294 270.262 235.018 270.262H229.995ZM240.04 270.262C239.764 270.262 239.54 270.486 239.54 270.762C239.54 271.038 239.764 271.262 240.04 271.262H245.063C245.339 271.262 245.563 271.038 245.563 270.762C245.563 270.486 245.339 270.262 245.063 270.262H240.04ZM250.086 270.262C249.81 270.262 249.586 270.486 249.586 270.762C249.586 271.038 249.81 271.262 250.086 271.262H255.109C255.385 271.262 255.609 271.038 255.609 270.762C255.609 270.486 255.385 270.262 255.109 270.262H250.086ZM260.132 270.262C259.856 270.262 259.632 270.486 259.632 270.762C259.632 271.038 259.856 271.262 260.132 271.262H265.155C265.431 271.262 265.655 271.038 265.655 270.762C265.655 270.486 265.431 270.262 265.155 270.262H260.132ZM270.178 270.262C269.901 270.262 269.678 270.486 269.678 270.762C269.678 271.038 269.901 271.262 270.178 271.262H275.2C275.477 271.262 275.7 271.038 275.7 270.762C275.7 270.486 275.477 270.262 275.2 270.262H270.178ZM280.223 270.262C279.947 270.262 279.723 270.486 279.723 270.762C279.723 271.038 279.947 271.262 280.223 271.262H285.246C285.522 271.262 285.746 271.038 285.746 270.762C285.746 270.486 285.522 270.262 285.246 270.262H280.223ZM290.269 270.262C289.993 270.262 289.769 270.486 289.769 270.762C289.769 271.038 289.993 271.262 290.269 271.262H295.292C295.568 271.262 295.792 271.038 295.792 270.762C295.792 270.486 295.568 270.262 295.292 270.262H290.269ZM300.315 270.262C300.039 270.262 299.815 270.486 299.815 270.762C299.815 271.038 300.039 271.262 300.315 271.262H305.338C305.614 271.262 305.838 271.038 305.838 270.762C305.838 270.486 305.614 270.262 305.338 270.262H300.315ZM310.36 270.262C310.084 270.262 309.86 270.486 309.86 270.762C309.86 271.038 310.084 271.262 310.36 271.262H315.383C315.659 271.262 315.883 271.038 315.883 270.762C315.883 270.486 315.659 270.262 315.383 270.262H310.36Z" fill="#fff"/>
</svg>
