<svg xmlns="http://www.w3.org/2000/svg" width="199" height="110" viewBox="0 0 199 110" fill="none"><path fill-rule="evenodd" clip-rule="evenodd" d="M181.954 0V79.1793H197.831V88.5038H172.344V2.33908C175.495 1.35885 178.705 0.577619 181.954 0V0ZM152.404 11.7906V79.1793H168.28V88.5038H142.783V18.8714C145.857 16.3362 149.069 13.9724 152.404 11.7906ZM132.76 27.6667V88.5038H123.149V36.2715C126.007 33.9113 128.897 31.2653 131.913 28.4923L132.76 27.709V27.6667ZM85.0468 44.1355V57.4291H103.569V46.2206C106.515 45.6639 109.382 44.7542 112.11 43.511L113.169 43.003V88.5144H103.569V66.7536H85.0468V88.5038H75.4365V38.1767C78.3225 40.6344 81.5623 42.6432 85.0468 44.1355Z" fill="#842990"></path><path d="M80.177 110L75.9434 99.7017H77.0759L80.685 108.719L84.3259 99.7017H85.4478L81.2142 110H80.177Z" fill="#E3C08D"></path><path d="M97.3662 110V99.7017H98.4246V110H97.3662Z" fill="#E3C08D"></path><path d="M111.199 110V99.7017H116.819V100.633H112.184V104.337H116.629V105.269H112.184V109.016H116.777V109.958L111.199 110Z" fill="#E3C08D"></path><path d="M130.78 110V100.633H128.409V99.7017H134.146V100.633H131.807V110H130.78Z" fill="#E3C08D"></path><path d="M146.053 110V99.7017H147.439L153.208 108.243V99.7017H154.266V110H153.208L147.079 100.94V110H146.053Z" fill="#E3C08D"></path><path d="M166.162 110L170.597 99.7017H171.74L176.164 110H175.042L173.571 106.539H168.787L167.221 110H166.162ZM169.168 105.608H173.148L171.168 100.887L169.168 105.608Z" fill="#E3C08D"></path><path d="M188.05 110V99.7017H189.637L193.395 108.465L197.152 99.7017H198.729V110H197.671V100.834L193.808 110H192.929L189.045 100.834V110H188.05Z" fill="#E3C08D"></path><path fill-rule="evenodd" clip-rule="evenodd" d="M38.3813 13.1135C44.75 13.1086 51.0197 14.6899 56.6242 17.7149C62.2287 20.7398 66.9916 25.113 70.4827 30.4396C66.3655 32.44 61.8144 33.6148 52.9026 27.7407C48.56 25.0024 43.5145 23.5866 38.3813 23.6658C31.0913 23.808 24.1479 26.8037 19.0426 32.0095C13.9373 37.2153 11.0775 44.2158 11.0775 51.5072C11.0775 58.7986 13.9373 65.7991 19.0426 71.0049C24.1479 76.2106 31.0913 79.2064 38.3813 79.3485C42.9815 79.363 47.512 78.224 51.5584 76.0357C57.3691 72.8605 60.5866 68.9021 70.4827 72.5642C66.8367 78.1199 61.8109 82.634 55.8971 85.6649C49.9833 88.6957 43.3839 90.1396 36.7448 89.855C30.1056 89.5705 23.654 87.5674 18.0211 84.0417C12.3883 80.5161 7.76713 75.5885 4.60978 69.7412C1.45244 63.894 -0.13295 57.3272 0.00872741 50.6835C0.150404 44.0397 2.01429 37.5465 5.41804 31.8391C8.82178 26.1318 13.6488 21.4057 19.4268 18.1234C25.2049 14.841 31.736 13.1148 38.3813 13.1135Z" fill="#842990"></path><path fill-rule="evenodd" clip-rule="evenodd" d="M53.9717 16.4053C60.7029 19.4104 66.4325 24.2806 70.4828 30.4397C69.9959 30.6832 69.4879 30.9054 68.9799 31.1171C57.9936 33.1281 61.6663 20.3637 53.9717 16.4053Z" fill="#F58220"></path><path fill-rule="evenodd" clip-rule="evenodd" d="M75.4365 41.4048C76.6749 43.8074 81.7235 47.2155 85.0468 47.7552V44.1355C81.5623 42.6432 78.3225 40.6344 75.4365 38.1767V41.3519V41.4048ZM103.569 51.2056C106.84 50.9054 110.065 50.227 113.179 49.1841V43.003L112.121 43.511C109.393 44.7542 106.525 45.6639 103.58 46.2206V51.2056H103.569ZM123.139 44.2837C123.403 44.1037 123.657 43.9238 123.901 43.7333C127.054 41.3231 130.012 38.6689 132.749 35.7953V27.709L131.902 28.4923C128.886 31.2653 125.997 33.9113 123.139 36.2715V44.2837ZM142.783 25.4017C145.826 22.3691 149.034 19.5071 152.393 16.8286V11.7483C149.062 13.9303 145.854 16.2942 142.783 18.829V25.4017ZM172.344 4.4453C175.308 3.01645 178.493 1.60878 181.954 0.211681V0C178.705 0.577619 175.495 1.35885 172.344 2.33908V4.4453Z" fill="#F58220"></path></svg>